<svg width="148" height="127" viewBox="0 0 148 127" fill="none" xmlns="http://www.w3.org/2000/svg">
<mask id="mask0_1040_2149" style="mask-type:luminance" maskUnits="userSpaceOnUse" x="22" y="85" width="34" height="42">
<path d="M22.4792 85.4219H55.8125V127H22.4792V85.4219Z" fill="white"/>
</mask>
<g mask="url(#mask0_1040_2149)">
<path d="M44.1511 85.6199C37.2813 99.4376 30.5052 113.292 23.5521 127.052C28.9844 127.115 34.4219 127.052 39.8542 127.083C45 116.74 50.198 106.422 55.198 96.0522C51.8646 92.2501 48.2396 88.6563 44.1511 85.6199Z" fill="white"/>
</g>
<mask id="mask1_1040_2149" style="mask-type:luminance" maskUnits="userSpaceOnUse" x="0" y="0" width="148" height="126">
<path d="M0 0H147.813V125.422H0V0Z" fill="white"/>
</mask>
<g mask="url(#mask1_1040_2149)">
<path d="M145.984 36.1458C144.76 30.6823 142.891 25.3333 140.26 20.3958C138.271 16.9219 136.052 13.5312 133.302 10.5781C135.292 14.526 137.307 18.4688 138.74 22.6771C139.995 26.5052 141.135 30.4219 141.484 34.4792C142.365 41.2031 141.104 48.5938 136.667 53.9115C136.984 52.1615 137.339 50.3802 137.042 48.5938C136.167 41.5521 132.078 35.5052 127.75 30.099C124.01 25.1615 120.417 19.9896 118.224 14.1458C116.5 9.67187 116.036 4.67708 117.495 0.0572917C115.714 2.10417 114.75 4.73437 114.37 7.39583C113.344 14.6094 115.859 22.0313 120.182 27.7917C119.599 28.2552 114.75 28.5521 113.115 27.5833C110.922 26.7396 109.667 24.6927 108.292 22.9375C108.875 25.625 110.339 28.1406 112.5 29.8646C115.276 32.0833 119.13 32.349 122.521 31.7917C126.172 36.7917 129.594 42.3125 130.38 48.5677C130.969 52.4792 128.979 56.6302 125.385 58.3854C121.526 60.224 117.526 61.776 113.609 63.5573C114.693 59.9896 114.865 56.1615 114.104 52.5417C113.026 48.0677 110.422 43.9479 106.891 41.026C108.583 44.4479 110.307 47.9531 110.865 51.7813C111.682 55.8125 110.922 60.3438 108 63.3802C104.667 66.7396 100.224 68.6094 96.1042 70.8021C94.2083 67.0313 92.2188 63.2656 90.4635 59.4063L89.7656 58.0052L79.1563 36.6458L73.75 25.776C66.3281 40.7917 58.849 55.7813 51.5417 70.8333C48.3854 69.2813 45.1719 67.7917 42.2813 65.75C39.5313 63.8802 37.1979 61.1615 36.6406 57.8021C35.5313 51.9844 37.9844 46.2292 40.6146 41.1719C38.0729 43.0156 36.2604 45.7292 34.8594 48.5052C32.5208 53.125 32.5521 58.6198 33.8333 63.5573C30.0365 61.8594 26.151 60.3125 22.3802 58.5313C18.9063 56.8646 16.6562 52.9792 17.0938 49.1198C17.7344 42.6615 21.2708 36.9948 24.9531 31.8229C28.224 32.3177 31.849 32.1146 34.6563 30.1875C37.1979 28.4323 38.6563 25.5104 39.474 22.6198C38.3646 24.0521 37.4323 25.6875 35.9115 26.7396C33.4844 28.4896 30.3021 28.9271 27.4635 28.0833C30.1823 23.6719 32.6667 18.9375 33.224 13.7031C33.8646 8.97396 33.1042 3.77083 30.0052 0C30.6198 2.63021 31.2917 5.31771 30.8281 8.03646C30.0938 14.3177 26.8802 19.9583 23.4063 25.1302C20.1302 30.0104 15.9531 34.3073 13.3542 39.625C11.0729 43.9792 9.72917 49.0052 10.7813 53.8854C8.23958 50.7865 6.75 46.9271 6.13542 43.0156C5.10937 35.7083 6.66146 28.3438 9.20313 21.5052C10.6354 17.7083 12.4479 14.1146 14.375 10.5469C7.68229 17.2396 3.50521 26.8542 1.54688 36C1.34375 36.9063 1.19792 37.7813 1.05208 38.6875C0.0260412 45.2344 1.10938 52.2188 4.90625 57.7135C10.224 65.6302 19.0208 70.276 27.6979 73.6354C36.4635 76.6458 44.6458 81.4115 51.3698 87.8073C61.9167 97.599 73.8385 124.365 73.9583 124.422C77.1094 114.604 81.6406 105.167 87.9219 96.9271C95.8438 86.4375 106.74 78.1094 119.25 73.8698C128.219 70.4531 137.422 65.6875 142.828 57.4219C146.948 51.224 147.594 43.3073 145.984 36.1458ZM73.8385 93.0677C72.2344 90.3229 70.1875 87.5781 68.3438 85.2969C68.3438 85.2656 68.3177 85.2656 68.3177 85.2656C66.8542 83.3385 65.3073 81.5 63.5521 79.8021C63.4948 79.7448 63.4948 79.7135 63.4948 79.7135L67.9375 70.6563L68.4323 69.6042L73.6615 58.9375C77.375 65.6615 80.474 72.6719 84.0365 79.4844C80.2083 83.6302 76.7917 88.1875 73.8385 93.0677Z" fill="white"/>
</g>
<mask id="mask2_1040_2149" style="mask-type:luminance" maskUnits="userSpaceOnUse" x="91" y="85" width="35" height="42">
<path d="M91.8125 85.4219H125.146V127H91.8125V85.4219Z" fill="white"/>
</mask>
<g mask="url(#mask2_1040_2149)">
<path d="M116.708 112.531C112.266 103.531 107.823 94.5313 103.292 85.5886C99.2916 88.7136 95.6666 92.2813 92.276 96.0782C97.3333 106.453 102.536 116.74 107.589 127.083C113.026 127.115 118.49 127.141 123.922 127.083L116.708 112.531Z" fill="white"/>
</g>
</svg>
